<svg id="Capa_1" enable-background="new 0 0 512.002 512.002" height="512" viewBox="0 0 512.002 512.002" width="512" xmlns="http://www.w3.org/2000/svg"><g><circle cx="256.001" cy="408.001" fill="#eef4ff" r="40"/><path d="m500.501 209.871-.76.75c-14.5 14.36-37.72 15.21-53.26 1.97-51.15-43.58-117.71-69.93-190.48-69.93s-139.33 26.35-190.48 69.93c-15.54 13.24-38.76 12.39-53.26-1.97l-.76-.75c-16.05-15.9-15.22-42.03 1.98-56.71 65.09-55.56 149.84-89.16 242.52-89.16s177.43 33.6 242.52 89.16c17.2 14.68 18.03 40.81 1.98 56.71z" fill="#94dfda"/><path d="m444.131 265.691c-14.25 14.12-36.99 15.21-52.57 2.54-36.89-29.99-84.1-47.99-135.56-47.99s-98.67 18-135.56 47.99c-15.58 12.67-38.32 11.58-52.57-2.54-7.68-7.6-11.45-17.49-11.45-27.35 0-11.23 4.89-22.44 14.47-30.21 50.4-40.92 114.85-65.47 185.11-65.47s134.71 24.55 185.11 65.47c17.98 14.59 19.45 41.29 3.02 57.56z" fill="#ffe278"/><path d="m388.341 320.941-.71.7c-13.76 13.63-35.55 15.2-51.13 3.66-22.44-16.64-50.31-26.49-80.5-26.49s-58.06 9.85-80.5 26.49c-15.58 11.54-37.37 9.97-51.13-3.66l-.71-.7c-16.75-16.59-15.03-44.14 3.9-58.25 35.76-26.65 80.23-42.45 128.44-42.45s92.68 15.8 128.44 42.45c18.93 14.11 20.65 41.66 3.9 58.25z" fill="#dd5958"/><path d="m500.501 209.871-.76.75c-14.5 14.36-37.72 15.21-53.26 1.97-51.15-43.58-117.71-69.93-190.48-69.93v-78.66c92.68 0 177.43 33.6 242.52 89.16 17.2 14.68 18.03 40.81 1.98 56.71z" fill="#61a7c5"/><path d="m444.131 265.691c-14.25 14.12-36.99 15.21-52.57 2.54-36.89-29.99-84.1-47.99-135.56-47.99v-77.58c70.26 0 134.71 24.55 185.11 65.47 17.98 14.59 19.45 41.29 3.02 57.56z" fill="#ffb454"/><path d="m388.341 320.941-.71.7c-13.76 13.63-35.55 15.2-51.13 3.66-22.44-16.64-50.31-26.49-80.5-26.49v-78.57c48.21 0 92.68 15.8 128.44 42.45 18.93 14.11 20.65 41.66 3.9 58.25z" fill="#d8225b"/><path d="m296.001 408.001c0 22.09-17.91 40-40 40v-80c22.09 0 40 17.91 40 40z" fill="#d9e6fc"/></g></svg>