<svg id="Capa_1" enable-background="new 0 0 512 512" height="512" viewBox="0 0 512 512" width="512" xmlns="http://www.w3.org/2000/svg"><g><path d="m512 256c0 141.385-114.615 256-256 256s-256-114.615-256-256c0-131.575 99.262-239.966 226.987-254.374 9.523-1.074 66.879.483 84.853 4.482 114.531 25.48 200.16 127.686 200.16 249.892z" fill="#644189"/><path d="m482 256c0 124.816-101.184 226-226 226s-226-101.184-226-226 101.184-226 226-226 226 101.184 226 226z" fill="#754ca0"/><path d="m392 405c0 13.807-60.889 25-136 25s-136-11.193-136-25 60.889-25 136-25 136 11.193 136 25z" fill="#533672"/><path d="m110 330c0 4.142-3.358 7.5-7.5 7.5h-5v5c0 4.142-3.358 7.5-7.5 7.5s-7.5-3.358-7.5-7.5v-5h-5c-4.142 0-7.5-3.358-7.5-7.5 0-4.142 3.358-7.5 7.5-7.5h5v-5c0-4.142 3.358-7.5 7.5-7.5s7.5 3.358 7.5 7.5v5h5c4.142 0 7.5 3.358 7.5 7.5z" fill="#ffc14f"/><path d="m185.141 336.351c-33.29-26.353-60.66-60.485-79.151-98.706-18.49-38.222-28.264-80.867-28.264-123.325v-65.765c53.94-25.8 111.851-38.877 172.226-38.877s118.286 13.077 172.225 38.877v65.765c0 42.458-9.774 85.103-28.264 123.325-18.49 38.221-45.86 72.353-79.15 98.706l-64.811 51.307z" fill="#fff04a"/><path d="m110.482 246.521 227.247-227.248c28.888 6.462 56.967 16.174 84.047 29.09l-263.615 263.616c-18.889-19.411-35.037-41.548-47.679-65.458z" fill="#fff79f"/><path d="m166.186 205.966c-15.154-31.325-23.164-66.273-23.164-101.068v-14.809c34.343-10.564 70.134-15.896 106.93-15.896s72.586 5.332 106.929 15.896v14.809c0 34.795-8.01 69.744-23.164 101.068-5.486 11.341-11.927 22.242-19.206 32.561-2.282 3.235-6.012 5.141-9.971 5.141h-109.177c-3.959 0-7.689-1.906-9.971-5.141-7.28-10.32-13.72-21.22-19.206-32.561z" fill="#def4f8"/><path d="m249.952 19.355c56.87 0 111.491 11.886 162.548 35.351v59.614c0 41.008-9.44 82.195-27.298 119.11-17.859 36.915-44.293 69.88-76.446 95.333l-58.804 46.551-58.804-46.552c-32.152-25.453-58.587-58.418-76.446-95.333s-27.298-78.102-27.298-119.11v-59.613c51.057-23.465 105.678-35.351 162.548-35.351m0-19.355c-63.074 0-122.817 14.256-176.185 39.723-3.489 1.665-5.719 5.178-5.719 9.044v65.553c0 89.492 40.918 174.072 111.086 229.619l64.611 51.148c3.637 2.879 8.777 2.879 12.414 0l64.611-51.148c70.167-55.546 111.086-140.126 111.086-229.619v-65.554c0-3.866-2.23-7.379-5.719-9.044-53.369-25.466-113.112-39.722-176.185-39.722z" fill="#ffc14f"/><path d="m184.276 171.808h131.351v65.123c-13.042 18.819-28.863 35.746-46.774 49.925l-4.462 3.532h-28.877l-4.462-3.533c-17.912-14.18-33.732-31.107-46.775-49.925v-65.122z" fill="#ffc14f"/><path d="m274.141 253.902h-48.378c-2.761 0-5-2.239-5-5v-35.608c0-2.761 2.239-5 5-5h48.378c2.761 0 5 2.239 5 5v35.608c0 2.762-2.239 5-5 5z" fill="#754ca0"/><path d="m274.026 282.635c-1.704 1.433-3.429 2.84-5.174 4.221l-18.9 14.962-18.901-14.962c-1.745-1.381-3.469-2.788-5.174-4.221z" fill="#9bcf1b"/><path d="m280.736 168.109v-67.324c0-4.142 3.358-7.5 7.5-7.5h12.364c4.142 0 7.5 3.358 7.5 7.5v67.324c0 4.142-3.358 7.5-7.5 7.5h-12.365c-4.142 0-7.499-3.358-7.499-7.5z" fill="#a6e0ec"/><path d="m154.361 180.235 92.042-78.378c2.045-1.741 5.052-1.741 7.097 0l92.042 78.378c3.875 3.3 1.542 9.64-3.548 9.64h-184.084c-5.09 0-7.424-6.34-3.549-9.64z" fill="#e5554e"/><path d="m480 250c0 4.142-3.358 7.5-7.5 7.5h-5v5c0 4.142-3.358 7.5-7.5 7.5s-7.5-3.358-7.5-7.5v-5h-5c-4.142 0-7.5-3.358-7.5-7.5 0-4.142 3.358-7.5 7.5-7.5h5v-5c0-4.142 3.358-7.5 7.5-7.5s7.5 3.358 7.5 7.5v5h5c4.142 0 7.5 3.358 7.5 7.5zm-303.548-217.5h-5v-5c0-4.142-3.358-7.5-7.5-7.5-4.142 0-7.5 3.358-7.5 7.5v5h-5c-4.142 0-7.5 3.358-7.5 7.5s3.358 7.5 7.5 7.5h5v5c0 4.142 3.358 7.5 7.5 7.5 4.142 0 7.5-3.358 7.5-7.5v-5h5c4.142 0 7.5-3.358 7.5-7.5s-3.358-7.5-7.5-7.5z" fill="#fffac1"/><path d="m440 350c0 44.183-35.817 80-80 80s-80-35.817-80-80 35.817-80 80-80 80 35.817 80 80z" fill="#84b017"/><path d="m440 350c0 15.691-4.517 30.326-12.322 42.678-12.352 7.805-26.987 12.322-42.678 12.322-44.183 0-80-35.817-80-80 0-15.691 4.517-30.326 12.322-42.678 12.352-7.805 26.987-12.322 42.678-12.322 44.183 0 80 35.817 80 80z" fill="#9bcf1b"/><path d="m425.106 306.089-67.508 67.509c-1.407 1.406-3.314 2.196-5.304 2.196s-3.896-.79-5.304-2.196l-26.641-26.641c-2.929-2.93-2.929-7.678 0-10.607 2.93-2.928 7.678-2.928 10.607 0l21.337 21.338 62.204-62.206c2.93-2.928 7.678-2.928 10.607 0 2.93 2.929 2.93 7.677.002 10.607z" fill="#fff"/></g></svg>