<svg id="Capa_1" enable-background="new 0 0 512 512" height="512" viewBox="0 0 512 512" width="512" xmlns="http://www.w3.org/2000/svg"><g><g><g><g><g><g><g><g><g><circle cx="256" cy="256" fill="#7584f2" r="256"/></g></g></g></g></g></g></g></g><path d="m512 256c0-6.69-.257-13.319-.761-19.88l-111.747-111.748-274.8 275.417 111.452 111.452c6.553.503 13.175.759 19.856.759 141.385 0 256-114.615 256-256z" fill="#606aea"/><g><g><g><g><g><g><g><g><circle cx="256" cy="256" fill="#ffce00" r="194.725"/></g></g></g></g></g></g></g></g><g><g><g><g><g><g><g><g><path d="m256 61.275c-.082 0-.162.003-.244.003v389.443c.082 0 .162.003.244.003 107.543 0 194.725-87.181 194.725-194.725s-87.182-194.724-194.725-194.724z" fill="#fdba12"/></g></g></g></g></g></g></g></g><g><g><g><g><g><g><g><g><path d="m135.36 290.187c19.138 55.204 65.937 94.207 120.64 94.207s101.502-39.003 120.64-94.207z" fill="#ff468c"/></g></g></g></g></g></g></g></g><g><g><g><g><g><g><g><g><path d="m255.756 290.187v94.205c.081 0 .162.003.244.003 54.703 0 101.502-39.003 120.64-94.207h-120.884z" fill="#be1964"/></g></g></g></g></g></g></g></g><g><g><circle cx="161.085" cy="213.311" fill="#707789" r="25.725"/></g><g><circle cx="350.915" cy="213.311" fill="#555a66" r="25.725"/></g></g></g></svg>